{"title":"Happy.Go.Lucky.LIMITED.2008.BRRip.x264.aac.mp4.anoXmous","uid":6887805,"size":733781040,"categoryP":"video","categoryS":"hd___movies","magnet":"?xt=urn:btih:a5493d67508e7bf64e552d2677b8741919b55fd7&amp;dn=Happy.Go.Lucky.LIMITED.2008.BRRip.x264.aac.mp4.anoXmous&amp;tr=udp%3A%2F%2Ftracker.openbittorrent.com%3A80&amp;tr=udp%3A%2F%2Fopen.demonii.com%3A1337&amp;tr=udp%3A%2F%2Ftracker.coppersurfer.tk%3A6969&amp;tr=udp%3A%2F%2Fexodus.desync.com%3A6969","seeders":1,"leechers":0,"uploader":"anoXmous","files":-1,"time":1323892123,"description":"Happy.Go.Lucky.LIMITED.2008.BRRip.x264.aac.mp4.anoXmous\n\nFormat                           : MPEG-4\nFormat profile                   : Base Media\nCodec ID                         : isom\nFile size                        : 700 MiB\nDuration                         : 1h 59mn\nOverall bit rate mode            : Variable\nOverall bit rate                 : 821 Kbps\n\nVideo\nID                               : 1\nFormat                           : AVC\nFormat/Info                      : Advanced Video Codec\nFormat profile                   : &lt;a class=&quot;__cf_email__&quot; href=&quot;/cdn-cgi/l/email-protection&quot; data-cfemail=&quot;f0b8999798b0bcc4dec1&quot;&gt;[email&amp;#160;protected]&lt;/a&gt;&lt;script cf-hash='f9e31' type=&quot;text/javascript&quot;&gt;\n/* &lt;![CDATA[ */!function(){try{var t=&quot;currentScript&quot;in document?document.currentScript:function(){for(var t=document.getElementsByTagName(&quot;script&quot;),e=t.length;e--;)if(t[e].getAttribute(&quot;cf-hash&quot;))return t[e]}();if(t&amp;&amp;t.previousSibling){var e,r,n,i,c=t.previousSibling,a=c.getAttribute(&quot;data-cfemail&quot;);if(a){for(e=&quot;&quot;,r=parseInt(a.substr(0,2),16),n=2;a.length-n;n+=2)i=parseInt(a.substr(n,2),16)^r,e+=String.fromCharCode(i);e=document.createTextNode(e),c.parentNode.replaceChild(e,c)}}}catch(u){}}();/* ]]&gt; */&lt;/script&gt;\nFormat settings, CABAC           : Yes\nFormat settings, ReFrames        : 4 frames\nCodec ID                         : avc1\nCodec ID/Info                    : Advanced Video Coding\nDuration                         : 1h 59mn\nBit rate                         : 753 Kbps\nMaximum bit rate                 : 3 591 Kbps\nWidth                            : 1 280 pixels\nHeight                           : 544 pixels\nDisplay aspect ratio             : 2.35:1\nOriginal display aspect ratio    : 2.35:1\nFrame rate mode                  : Constant\nFrame rate                       : 23.976 fps\nColor space                      : YUV\nChroma subsampling               : 4:2:0\nBit depth                        : 8 bits\nScan type                        : Progressive\nBits/(Pixel*Frame)               : 0.045\nStream size                      : 642 MiB (92%)\nWriting library                  : x264 core 120 r2120 0c7dab9\n\nAudio\nID                               : 2\nFormat                           : AAC\nFormat/Info                      : Advanced Audio Codec\nFormat profile                   : LC\nCodec ID                         : 40\nDuration                         : 1h 59mn\nBit rate mode                    : Variable\nBit rate                         : 66.2 Kbps\nMaximum bit rate                 : 85.3 Kbps\nChannel(s)                       : 2 channels\nChannel positions                : Front: L R\nSampling rate                    : 48.0 KHz \nCompression mode                 : Lossy\nStream size                      : 55.6 MiB (8%)\nLanguage                         : English\n\n                              SUB:\nHappy.Go.Lucky.LIMITED.2008.BRRip.x264.aac.mp4.anoXmous_swe.srt\n &lt;a href=&quot;\nhttp://www.imdb.com/title/tt1045670/&quot; rel=&quot;nofollow&quot; target=&quot;_NEW&quot;&gt;\nhttp://www.imdb.com/title/tt1045670/&lt;/a&gt;\n\n +++++++ This work very fine with PSP and XBOX :) +++++++++","torrent":{"xt":"urn:btih:a5493d67508e7bf64e552d2677b8741919b55fd7","amp;dn":"Happy.Go.Lucky.LIMITED.2008.BRRip.x264.aac.mp4.anoXmous","amp;tr":["udp%3A%2F%2Ftracker.openbittorrent.com%3A80","udp%3A%2F%2Fopen.demonii.com%3A1337","udp%3A%2F%2Ftracker.coppersurfer.tk%3A6969","udp%3A%2F%2Fexodus.desync.com%3A6969"],"infoHash":"a5493d67508e7bf64e552d2677b8741919b55fd7","infoHashBuffer":{"type":"Buffer","data":[165,73,61,103,80,142,123,246,78,85,45,38,119,184,116,25,25,181,95,215]},"announce":[],"urlList":[]}}